<?xml version="1.0" encoding="UTF-8" standalone="no"?>
<svg
   width="15.135411mm"
   height="15.135412mm"
   viewBox="0 0 15.135411 15.135412"
   version="1.1"
   id="svg6914"
   inkscape:version="1.1.2 (0a00cf5339, 2022-02-04)"
   sodipodi:docname="LoveKnob.svg"
   xmlns:inkscape="http://www.inkscape.org/namespaces/inkscape"
   xmlns:sodipodi="http://sodipodi.sourceforge.net/DTD/sodipodi-0.dtd"
   xmlns="http://www.w3.org/2000/svg"
   xmlns:svg="http://www.w3.org/2000/svg"
   xmlns:rdf="http://www.w3.org/1999/02/22-rdf-syntax-ns#"
   xmlns:cc="http://creativecommons.org/ns#"
   xmlns:dc="http://purl.org/dc/elements/1.1/">
  <defs
     id="defs6908">
    <inkscape:path-effect
       effect="powerstroke"
       id="path-effect1587"
       is_visible="true"
       lpeversion="1"
       offset_points="3.8851634,0.60660531"
       sort_points="true"
       interpolator_type="CentripetalCatmullRom"
       interpolator_beta="0.39375"
       start_linecap_type="zerowidth"
       linejoin_type="miter"
       miter_limit="4"
       scale_width="1.5"
       end_linecap_type="butt"
       not_jump="false" />
    <clipPath
       id="clip444-3">
      <path
         d="m 1201.582,338.19922 h 18 v 18 h -18 z m 0,0"
         id="path24586-6"
         inkscape:connector-curvature="0" />
    </clipPath>
  </defs>
  <sodipodi:namedview
     id="base"
     pagecolor="#ffffff"
     bordercolor="#666666"
     borderopacity="1.0"
     inkscape:pageopacity="0.0"
     inkscape:pageshadow="2"
     inkscape:zoom="4.7912307"
     inkscape:cx="4.1742928"
     inkscape:cy="19.827891"
     inkscape:document-units="mm"
     inkscape:current-layer="g25890"
     inkscape:document-rotation="0"
     showgrid="false"
     fit-margin-top="0"
     fit-margin-left="0"
     fit-margin-right="0"
     fit-margin-bottom="0"
     inkscape:window-width="1920"
     inkscape:window-height="1061"
     inkscape:window-x="0"
     inkscape:window-y="0"
     inkscape:window-maximized="1"
     inkscape:pagecheckerboard="0"
     inkscape:snap-object-midpoints="true"
     inkscape:snap-global="true" />
  <metadata
     id="metadata6911">
    <rdf:RDF>
      <cc:Work
         rdf:about="">
        <dc:format>image/svg+xml</dc:format>
        <dc:type
           rdf:resource="http://purl.org/dc/dcmitype/StillImage" />
      </cc:Work>
    </rdf:RDF>
  </metadata>
  <g
     inkscape:label="Layer 1"
     inkscape:groupmode="layer"
     id="layer1"
     transform="translate(-32.072936,-102.28618)">
    <g
       id="g1189"
       transform="translate(-0.030512,0.219065)" />
    <g
       id="g25203"
       transform="rotate(0.46961139,-3104.1048,2763.1651)"
       style="display:inline">
      <g
         id="g1539"
         transform="matrix(1.0271565,-0.01317883,0.01317883,1.0271565,-25.083862,-29.499965)"
         style="display:inline;mix-blend-mode:normal;stroke-width:0.973476">
        <path
           style="display:inline;fill:#000000;fill-opacity:1;fill-rule:nonzero;stroke:none;stroke-width:0.343423"
           d="m 47.678292,111.18741 c 0,4.06936 -3.297646,7.367 -7.366994,7.367 -4.067969,0 -7.365612,-3.29764 -7.365612,-7.367 0,-4.06797 3.297643,-7.36561 7.365612,-7.36561 4.069348,0 7.366994,3.29764 7.366994,7.36561"
           id="path7641-3"
           inkscape:connector-curvature="0" />
        <path
           style="display:inline;fill:#440f0e;fill-opacity:1;fill-rule:nonzero;stroke:none;stroke-width:0.343423"
           d="m 46.278358,111.18727 c 0,3.29515 -2.669553,5.96637 -5.96636,5.96637 -3.293494,0 -5.964704,-2.67122 -5.964704,-5.96637 0,-3.29351 2.67121,-5.96471 5.964704,-5.96471 3.296807,0 5.96636,2.6712 5.96636,5.96471"
           id="path96036-6"
           inkscape:connector-curvature="0" />
        <path
           style="display:inline;fill:#9b4442;fill-opacity:1;fill-rule:nonzero;stroke:none;stroke-width:0.343423"
           d="m 45.279964,111.18741 c 0,2.74367 -2.222775,4.96784 -4.967827,4.96784 -2.742293,0 -4.966448,-2.22417 -4.966448,-4.96784 0,-2.74231 2.224155,-4.96645 4.966448,-4.96645 2.745052,0 4.967827,2.22414 4.967827,4.96645"
           id="path7643-7"
           inkscape:connector-curvature="0" />
        <path
           style="display:inline;fill:#9b4442;fill-opacity:1;fill-rule:nonzero;stroke:none;stroke-width:0.343423"
           d="m 41.017692,103.85763 c -0.23151,-0.0221 -0.467155,-0.0358 -0.705555,-0.0358 -0.238399,0 -0.472665,0.0138 -0.705557,0.0358 v 2.49149 h 1.411112 z m 0,0"
           id="path7645-1"
           inkscape:connector-curvature="0" />
      </g>
      <g
         id="g25890"
         transform="matrix(1.0272411,0,0,1.0272411,-0.09828354,-4.8338477)"
         style="stroke-width:0.973476">
        <path
           d="m 17.68229,88.929894 c -0.205739,-0.544801 -0.210233,-1.384598 0.34338,-1.770808 0.583833,-0.183744 1.005668,-0.912819 1.63331,-0.812305 0.452263,0.476858 -0.315781,0.907854 -0.599422,1.241097 -0.553539,0.203418 0.203022,-0.496743 0.370685,-0.64173 0.484377,-0.646181 -0.419371,-0.348479 -0.569252,0.03052 -0.542137,0.210102 -1.196297,0.44095 -1.078314,1.198404 -0.06123,0.195375 0.12508,0.66606 -0.100387,0.754825 z"
           id="path4"
           style="display:inline;fill:#440f0e;fill-opacity:1;stroke:none;stroke-width:0.0632764;stroke-miterlimit:4;stroke-dasharray:none;stroke-opacity:1" />
        <path
           d="m 19.167228,88.929894 c -0.327842,-0.521823 0.105901,-1.119914 0.522745,-1.438529 0.369541,-0.258707 0.508466,-0.691401 0.456039,-1.122478 0,-0.346338 0,-0.692675 0,-1.039013 -0.516054,-0.443407 -0.3832,0.760125 -0.446215,1.05267 -0.372689,0.294645 -0.107286,-0.671942 -0.123605,-0.934926 -0.03161,-0.872115 1.067341,-0.338578 0.769229,0.290829 -0.04068,0.571997 0.174583,1.273558 -0.319904,1.705593 -0.443545,0.376566 -0.879416,0.811423 -0.790001,1.429613 l -0.06829,0.05624 z"
           id="path6"
           style="display:inline;fill:#440f0e;fill-opacity:1;stroke:none;stroke-width:0.0632764;stroke-miterlimit:4;stroke-dasharray:none;stroke-opacity:1" />
        <path
           d="m 17.14222,88.929894 c -0.237091,-0.565891 0.116796,-1.467162 -0.685603,-1.76415 -0.471196,-0.04141 -0.754702,-0.678475 -1.181973,-0.599302 -0.120087,0.306372 0.258027,0.449302 0.409636,0.661057 0.301166,0.141611 0.396743,0.669322 -0.01889,0.274538 -0.348205,-0.255246 -1.063099,-1.048806 -0.278509,-1.222265 0.495753,0.249319 0.8321,0.728316 1.40912,0.800124 0.490512,0.381181 0.578411,1.37603 0.346223,1.849998 z"
           id="path8"
           style="display:inline;fill:#440f0e;fill-opacity:1;stroke:none;stroke-width:0.0632764;stroke-miterlimit:4;stroke-dasharray:none;stroke-opacity:1" />
        <path
           d="m 15.657283,88.929894 c -0.112514,-0.515315 -0.1819,-1.028403 -0.701893,-1.329922 -0.393264,-0.29122 -0.532968,-0.764037 -0.479395,-1.231085 0.02,-0.386557 -0.04217,-0.784492 0.03505,-1.163123 0.438709,-0.690368 0.948643,0.345979 0.788596,0.812829 0.170904,0.333723 -0.200912,0.670858 -0.195263,0.154758 0.09893,-0.30293 -0.185097,-1.485307 -0.422841,-0.704892 0.0707,0.612803 -0.216307,1.380895 0.285189,1.857789 0.442602,0.382511 0.993598,0.903041 0.751537,1.545202 l -0.061,0.05845 z"
           id="path10"
           style="display:inline;fill:#440f0e;fill-opacity:1;stroke:none;stroke-width:0.0632764;stroke-miterlimit:4;stroke-dasharray:none;stroke-opacity:1" />
        <path
           d="m 17.412255,86.573554 c -0.596491,-0.510195 -1.130152,-1.094231 -1.676147,-1.656676 -0.521472,-0.539876 -0.170787,-1.674231 0.650228,-1.613512 0.575477,-0.10541 0.999474,0.709098 1.391648,0.111494 0.675056,-0.403168 1.749718,0.18129 1.549103,1.014265 -0.281599,0.788296 -1.065609,1.234506 -1.582004,1.858412 -0.101346,0.105556 -0.207724,0.2086 -0.332828,0.286017 z m -0.911254,-3.11068 c -0.700964,-0.04378 -0.967587,0.82515 -0.594083,1.328402 0.278409,0.375902 0.662615,0.662425 0.977979,1.010526 0.175786,0.175774 0.351572,0.351548 0.527358,0.527322 0.535041,-0.554223 1.11232,-1.071615 1.617694,-1.651731 0.448139,-0.650453 -0.45121,-1.437294 -1.092227,-1.124646 -0.306414,0.345459 -0.696504,0.567579 -0.981147,0.03726 -0.114054,-0.117903 -0.293947,-0.225447 -0.455574,-0.127133 z"
           id="path12"
           style="display:inline;fill:none;fill-opacity:1;stroke:#440f0e;stroke-width:0.24337032;stroke-miterlimit:4;stroke-dasharray:none;stroke-opacity:1" />
      </g>
    </g>
  </g>
</svg>
