<?xml version="1.0" encoding="UTF-8" standalone="no"?>
<svg
   width="14.732606mm"
   height="14.73261mm"
   viewBox="0 0 14.732606 14.73261"
   version="1.1"
   id="svg6914"
   inkscape:version="1.1 (c4e8f9ed74, 2021-05-24)"
   sodipodi:docname="LoveKnob.svg"
   xmlns:inkscape="http://www.inkscape.org/namespaces/inkscape"
   xmlns:sodipodi="http://sodipodi.sourceforge.net/DTD/sodipodi-0.dtd"
   xmlns="http://www.w3.org/2000/svg"
   xmlns:svg="http://www.w3.org/2000/svg"
   xmlns:rdf="http://www.w3.org/1999/02/22-rdf-syntax-ns#"
   xmlns:cc="http://creativecommons.org/ns#"
   xmlns:dc="http://purl.org/dc/elements/1.1/">
  <defs
     id="defs6908">
    <inkscape:path-effect
       effect="powerstroke"
       id="path-effect1587"
       is_visible="true"
       lpeversion="1"
       offset_points="3.8851634,0.60660531"
       sort_points="true"
       interpolator_type="CentripetalCatmullRom"
       interpolator_beta="0.39375"
       start_linecap_type="zerowidth"
       linejoin_type="miter"
       miter_limit="4"
       scale_width="1.5"
       end_linecap_type="butt"
       not_jump="false" />
    <clipPath
       id="clip444-3">
      <path
         d="m 1201.582,338.19922 h 18 v 18 h -18 z m 0,0"
         id="path24586-6"
         inkscape:connector-curvature="0" />
    </clipPath>
  </defs>
  <sodipodi:namedview
     id="base"
     pagecolor="#ffffff"
     bordercolor="#666666"
     borderopacity="1.0"
     inkscape:pageopacity="0.0"
     inkscape:pageshadow="2"
     inkscape:zoom="3.9915002"
     inkscape:cx="26.305899"
     inkscape:cy="10.898158"
     inkscape:document-units="mm"
     inkscape:current-layer="g1189"
     inkscape:document-rotation="0"
     showgrid="false"
     fit-margin-top="0"
     fit-margin-left="0"
     fit-margin-right="0"
     fit-margin-bottom="0"
     inkscape:window-width="1060"
     inkscape:window-height="1080"
     inkscape:window-x="0"
     inkscape:window-y="0"
     inkscape:window-maximized="0"
     inkscape:pagecheckerboard="0"
     inkscape:snap-object-midpoints="true" />
  <metadata
     id="metadata6911">
    <rdf:RDF>
      <cc:Work
         rdf:about="">
        <dc:format>image/svg+xml</dc:format>
        <dc:type
           rdf:resource="http://purl.org/dc/dcmitype/StillImage" />
      </cc:Work>
    </rdf:RDF>
  </metadata>
  <g
     inkscape:label="Layer 1"
     inkscape:groupmode="layer"
     id="layer1"
     transform="translate(-32.945686,-103.8218)">
    <path
       style="display:inline;fill:#000000;fill-opacity:1;fill-rule:nonzero;stroke:none;stroke-width:0.352777"
       d="m 47.678292,111.18741 c 0,4.06936 -3.297646,7.367 -7.366994,7.367 -4.067969,0 -7.365612,-3.29764 -7.365612,-7.367 0,-4.06797 3.297643,-7.36561 7.365612,-7.36561 4.069348,0 7.366994,3.29764 7.366994,7.36561"
       id="path7641"
       inkscape:connector-curvature="0" />
    <path
       style="display:inline;fill:#440f0e;fill-opacity:1;fill-rule:nonzero;stroke:none;stroke-width:0.352777"
       d="m 46.278358,111.18727 c 0,3.29515 -2.669553,5.96637 -5.96636,5.96637 -3.293494,0 -5.964704,-2.67122 -5.964704,-5.96637 0,-3.29351 2.67121,-5.96471 5.964704,-5.96471 3.296807,0 5.96636,2.6712 5.96636,5.96471"
       id="path96036"
       inkscape:connector-curvature="0" />
    <path
       style="display:inline;fill:#9b4442;fill-opacity:1;fill-rule:nonzero;stroke:none;stroke-width:0.352777"
       d="m 45.279964,111.18741 c 0,2.74367 -2.222775,4.96784 -4.967827,4.96784 -2.742293,0 -4.966448,-2.22417 -4.966448,-4.96784 0,-2.74231 2.224155,-4.96645 4.966448,-4.96645 2.745052,0 4.967827,2.22414 4.967827,4.96645"
       id="path7643"
       inkscape:connector-curvature="0" />
    <g
       id="g1189"
       transform="translate(-0.030512,0.219065)">
      <path
         d="m 40.612539,113.32534 a 0.10119164,0.10119164 0 0 1 -0.101253,-0.10125 v -0.81 a 1.1825555,1.1825555 0 0 1 1.138473,-1.1805 l 0.443661,-0.44356 a 0.38761875,0.38761875 0 1 1 0.54817,0.54817 l -0.742465,0.74247 a 0.10124023,0.10124023 0 1 1 -0.143168,-0.14317 l 0.742469,-0.74247 a 0.18514475,0.18514475 0 1 0 -0.261834,-0.26183 l -0.472535,0.47243 a 0.10117542,0.10117542 0 0 1 -0.07159,0.0297 0.9798503,0.9798503 0 0 0 -0.978682,0.97879 v 0.81001 a 0.10119365,0.10119365 0 0 1 -0.101253,0.10125 z"
         id="path4"
         style="display:inline;fill:#440f0e;fill-opacity:1;stroke:none;stroke-width:0.065;stroke-miterlimit:4;stroke-dasharray:none;stroke-opacity:1" />
      <path
         d="m 42.097477,113.32534 a 0.10119365,0.10119365 0 0 1 -0.101253,-0.10125 v -0.39749 a 0.76592651,0.76592651 0 0 1 0.225937,-0.5453 l 0.687489,-0.6876 a 0.57224471,0.57224471 0 0 0 0.166611,-0.40213 v -1.46625 a 0.18002312,0.18002312 0 0 0 -0.359418,-0.0149 l -0.09344,1.12146 a 0.09990777,0.09990777 0 0 1 -0.109256,0.0925 0.10106203,0.10106203 0 0 1 -0.09245,-0.10925 l 0.09343,-1.12147 a 0.38247523,0.38247523 0 0 1 0.76363,0.0317 v 1.46625 a 0.76592452,0.76592452 0 0 1 -0.225934,0.54531 l -0.68749,0.68759 a 0.57224674,0.57224674 0 0 0 -0.166609,0.40214 v 0.39748 a 0.10119164,0.10119164 0 0 1 -0.101253,0.10126 z"
         id="path6"
         style="display:inline;fill:#440f0e;fill-opacity:1;stroke:none;stroke-width:0.065;stroke-miterlimit:4;stroke-dasharray:none;stroke-opacity:1" />
      <path
         d="m 40.072469,113.32534 a 0.10119365,0.10119365 0 0 1 -0.101253,-0.10125 v -0.81 a 0.9798503,0.9798503 0 0 0 -0.978686,-0.97879 0.10117542,0.10117542 0 0 1 -0.07159,-0.0297 l -0.472528,-0.47243 a 0.18514418,0.18514418 0 1 0 -0.261833,0.26183 l 0.742468,0.74246 a 0.10124023,0.10124023 0 1 1 -0.143168,0.14317 l -0.742473,-0.74246 a 0.38761875,0.38761875 0 1 1 0.54817,-0.54817 l 0.44366,0.44356 a 1.1825555,1.1825555 0 0 1 1.138482,1.18049 v 0.81001 a 0.10119164,0.10119164 0 0 1 -0.101253,0.10125 z"
         id="path8"
         style="display:inline;fill:#440f0e;fill-opacity:1;stroke:none;stroke-width:0.065;stroke-miterlimit:4;stroke-dasharray:none;stroke-opacity:1" />
      <path
         d="m 38.587532,113.32534 a 0.10119164,0.10119164 0 0 1 -0.101253,-0.10125 v -0.39749 a 0.57224674,0.57224674 0 0 0 -0.166607,-0.40213 l -0.68749,-0.68759 a 0.76592452,0.76592452 0 0 1 -0.225938,-0.54531 v -1.46625 a 0.38247523,0.38247523 0 0 1 0.763631,-0.0317 l 0.09343,1.12147 a 0.10120418,0.10120418 0 1 1 -0.201709,0.0168 l -0.09345,-1.12147 a 0.18002312,0.18002312 0 0 0 -0.359419,0.0149 v 1.46625 a 0.57224471,0.57224471 0 0 0 0.166608,0.40213 l 0.687491,0.6876 a 0.76592651,0.76592651 0 0 1 0.22594,0.54531 v 0.39748 a 0.10119365,0.10119365 0 0 1 -0.101253,0.10126 z"
         id="path10"
         style="display:inline;fill:#440f0e;fill-opacity:1;stroke:none;stroke-width:0.065;stroke-miterlimit:4;stroke-dasharray:none;stroke-opacity:1" />
      <path
         d="m 40.342504,110.969 a 0.1009304,0.1009304 0 0 1 -0.07159,-0.0297 l -1.555634,-1.5555 a 1.0125341,1.0125341 0 0 1 1.431939,-1.43194 l 0.195283,0.19538 0.195284,-0.19538 a 1.0125341,1.0125341 0 0 1 1.431939,1.43194 l -1.555634,1.55554 a 0.1009304,0.1009304 0 0 1 -0.07159,0.0297 z m -0.911254,-3.11068 a 0.80950869,0.80950869 0 0 0 -0.572794,1.3823 l 1.484048,1.48395 1.484049,-1.48395 a 0.81005546,0.81005546 0 0 0 -1.145591,-1.14559 l -0.266869,0.26697 a 0.10422104,0.10422104 0 0 1 -0.143169,0 l -0.266878,-0.26697 a 0.80779353,0.80779353 0 0 0 -0.572796,-0.23671 z"
         id="path12"
         style="display:inline;fill:none;fill-opacity:1;stroke:#440f0e;stroke-width:0.2;stroke-miterlimit:4;stroke-dasharray:none;stroke-opacity:1" />
    </g>
    <path
       style="display:inline;fill:#9b4442;fill-opacity:1;fill-rule:nonzero;stroke:none;stroke-width:0.352777"
       d="m 41.017692,103.85763 c -0.23151,-0.0221 -0.467155,-0.0358 -0.705555,-0.0358 -0.238399,0 -0.472665,0.0138 -0.705557,0.0358 v 2.49149 h 1.411112 z m 0,0"
       id="path7645"
       inkscape:connector-curvature="0" />
  </g>
</svg>
