<?xml version="1.0" encoding="UTF-8" standalone="no"?>
<svg
   xmlns:dc="http://purl.org/dc/elements/1.1/"
   xmlns:cc="http://creativecommons.org/ns#"
   xmlns:rdf="http://www.w3.org/1999/02/22-rdf-syntax-ns#"
   xmlns:svg="http://www.w3.org/2000/svg"
   xmlns="http://www.w3.org/2000/svg"
   xmlns:sodipodi="http://sodipodi.sourceforge.net/DTD/sodipodi-0.dtd"
   xmlns:inkscape="http://www.inkscape.org/namespaces/inkscape"
   width="10.05647mm"
   height="10.05647mm"
   viewBox="0 0 10.05647 10.05647"
   version="1.1"
   id="svg6914"
   inkscape:version="1.0.1 (3bc2e813f5, 2020-09-07)"
   sodipodi:docname="LayerKnob.svg">
  <defs
     id="defs6908" />
  <sodipodi:namedview
     id="base"
     pagecolor="#ffffff"
     bordercolor="#666666"
     borderopacity="1.0"
     inkscape:pageopacity="0.0"
     inkscape:pageshadow="2"
     inkscape:zoom="2.8"
     inkscape:cx="29.879899"
     inkscape:cy="21.124642"
     inkscape:document-units="mm"
     inkscape:current-layer="layer1"
     inkscape:document-rotation="0"
     showgrid="false"
     fit-margin-top="0"
     fit-margin-left="0"
     fit-margin-right="0"
     fit-margin-bottom="0"
     inkscape:window-width="1338"
     inkscape:window-height="720"
     inkscape:window-x="582"
     inkscape:window-y="0"
     inkscape:window-maximized="0" />
  <metadata
     id="metadata6911">
    <rdf:RDF>
      <cc:Work
         rdf:about="">
        <dc:format>image/svg+xml</dc:format>
        <dc:type
           rdf:resource="http://purl.org/dc/dcmitype/StillImage" />
        <dc:title></dc:title>
      </cc:Work>
    </rdf:RDF>
  </metadata>
  <g
     inkscape:label="Layer 1"
     inkscape:groupmode="layer"
     id="layer1"
     transform="translate(-51.668193,-114.41224)">
    <g
       style="display:inline;stroke-width:0.819904"
       id="g1513"
       transform="matrix(1.2196553,0,0,1.2196553,10.251618,36.610954)">
      <g
         style="stroke-width:1.44178"
         inkscape:label="RoganHalfPWhite"
         transform="matrix(0.56867338,0,0,0.56867261,8.1511735,13.817969)"
         id="g1511">
        <g
           style="stroke-width:1.10144"
           id="g1509"
           transform="matrix(1.3089916,0,0,1.3089916,-16.24396,-24.473059)">
          <path
             inkscape:connector-curvature="0"
             id="path1503"
             d="m 58.154134,91.365603 c 0,3.059246 -2.479075,5.538336 -5.538328,5.538336 -3.057878,0 -5.538329,-2.47909 -5.538329,-5.538336 0,-3.057867 2.480451,-5.538336 5.538329,-5.538336 3.059253,0 5.538328,2.480469 5.538328,5.538336"
             style="fill:#000000;fill-opacity:1;fill-rule:nonzero;stroke:none;stroke-width:0.388568" />
          <path
             inkscape:connector-curvature="0"
             id="path1505"
             d="m 56.566634,91.364911 c 0,2.182813 -1.768016,3.950836 -3.950828,3.950836 -2.181437,0 -3.950829,-1.768023 -3.950829,-3.950836 0,-2.181433 1.769392,-3.949456 3.950829,-3.949456 2.182812,0 3.950828,1.768023 3.950828,3.949456"
             style="fill:#999999;fill-opacity:1;fill-rule:nonzero;stroke:none;stroke-width:0.388568" />
          <path
             inkscape:connector-curvature="0"
             id="path1507"
             d="m 53.321361,85.876878 c -0.231493,-0.02893 -0.465772,-0.04961 -0.705555,-0.04961 -0.239783,0 -0.474028,0.02067 -0.705556,0.04961 v 1.701878 h 1.411111 z m 0,0"
             style="fill:#999999;fill-opacity:1;fill-rule:nonzero;stroke:none;stroke-width:0.388568" />
        </g>
      </g>
    </g>
  </g>
</svg>
